<svg version="1" xmlns="http://www.w3.org/2000/svg" width="682.667" height="682.667" viewBox="0 0 512.000000 512.000000"><path d="M222.5 18.1c-14.3 8.2-29.1 16.8-33 19-3.8 2.2-8.3 4.8-10 5.8-1.6 1-5 2.9-7.5 4.3s-11.7 6.7-20.5 11.8c-15.1 8.7-30.6 17.7-38.5 22.2-1.9 1.1-15 8.7-29 16.8-14 8.1-27.2 15.7-29.2 16.9-2.1 1.1-5.3 2.9-7 4-1.8 1-5.2 3-7.6 4.3-3.2 1.9-4 2.7-3 3.5 1.1.9 58.3 34.1 70.3 40.9 2.2 1.2 10.7 6.1 18.8 10.8 8.2 4.7 15.3 8.6 15.8 8.6.6 0 5.1-2.4 10.2-5.4 5.1-3 10.8-6.3 12.7-7.4 17.8-10 76.4-44.1 79.7-46.3 2.3-1.5 4.3-2.4 4.5-2 .2.4 2.3 1.8 4.8 3.2 2.5 1.4 13.1 7.5 23.5 13.6 10.5 6 21 12.1 23.5 13.5 2.5 1.4 15.5 8.9 28.9 16.7 13.4 7.7 24.8 14.1 25.3 14.1.4 0 7.9-4.1 16.6-9.1 8.6-5 21.6-12.5 28.7-16.6 7.2-4.1 13.7-7.9 14.5-8.4.8-.5 9.4-5.4 19-10.9s18.2-10.5 19-11c.8-.6 3-1.8 4.8-2.7 1.7-.9 3.2-1.9 3.2-2.2 0-.3-3.3-2.5-7.3-4.7-3.9-2.3-14.4-8.3-23.2-13.4-8.8-5.1-17.6-10.2-19.5-11.2-1.9-1.1-13.4-7.7-25.5-14.7-12.1-7.1-38.6-22.4-59-34.1-20.3-11.7-38.7-22.3-40.7-23.6-2.1-1.3-3.9-2.4-4.1-2.4-.2 0-7.7-4.3-16.6-9.5-9-5.2-16.4-9.5-16.4-9.5-.1 0-11.9 6.8-26.2 15.1zM458 154.7c-8 4.7-17 9.9-20 11.6-4.6 2.7-23.9 13.8-29.8 17.2-.9.5-10.6 6.1-21.4 12.3-14.9 8.6-19.7 11.8-19.9 13.5-.2 1.2-.4 29-.3 61.7v59.5L324.2 355c-23.3 13.5-44.3 25.6-46.6 26.9-2.2 1.3-7.1 4.1-10.8 6.3l-6.8 3.9V512h2.6c2.3 0 11.6-5.1 47.1-25.6 10.6-6.2 44.6-25.8 60.8-35.1 10.5-6.1 26.2-15.2 35-20.3 8.8-5.1 27-15.5 40.5-23.2 13.5-7.8 25.1-14.6 25.8-15.2.9-.9 1.2-26.5 1-123.8l-.3-122.5-14.5 8.4zM24 269.5v122.4l8.2 4.8c4.6 2.7 9.1 5.2 10 5.8 1 .5 8.4 4.8 16.4 9.5 8.1 4.7 16.5 9.6 18.8 10.8 2.2 1.3 11.5 6.7 20.6 11.9 9.1 5.3 17.9 10.4 19.5 11.3 1.7.9 10.7 6.1 20 11.5 9.4 5.4 18.4 10.6 20 11.5 1.7 1 8.4 4.9 15 8.7 50.1 29.1 59.5 34.3 61.9 34.3h2.6V392.1l-9.2-5.4c-5.1-3-10.9-6.4-12.8-7.5-1.9-1-7.5-4.3-12.5-7.2-4.9-2.9-11.5-6.6-14.5-8.3-3-1.7-8.2-4.7-11.5-6.7-3.3-2-6.7-3.9-7.5-4.3-.8-.4-9.8-5.5-20-11.4l-18.4-10.8-.1-61.5v-61.5l-11-6.3c-12-7-42.2-24.5-47-27.2-1.6-.9-12.8-7.4-24.8-14.3-12.1-7-22.3-12.7-22.8-12.7s-.9 50.1-.9 122.5z"/></svg>