<svg xmlns="http://www.w3.org/2000/svg" xmlns:xlink="http://www.w3.org/1999/xlink" preserveAspectRatio="xMidYMid meet" width="64" height="64"><style><![CDATA[.B{fill-opacity:0}.C{stroke:#000}.D{stroke-opacity:0}]]></style><defs><path d="M4 33.24l6.64-3.84 6.65-3.85v15.38l-6.65-3.84L4 33.24z" id="A"/><path d="M4 33.24l6.64-3.84 6.65-3.85v15.38l-6.65-3.84L4 33.24z" id="B"/><path d="M4 33.24l6.64-3.84 6.65-3.85v15.38l-6.65-3.84L4 33.24z" id="C"/><path d="M4 33.24l6.64-3.84 6.65-3.85v15.38l-6.65-3.84L4 33.24z" id="D"/><path d="M17.3 25.55L4 33.24V17.86l13.3 7.7z" id="E"/><path d="M17.3 25.55L4 33.24V17.86l13.3 7.7z" id="F"/><path d="M17.3 25.55L4 33.24V17.86l13.3 7.7z" id="G"/><path d="M17.3 25.55L4 33.24V17.86l13.3 7.7z" id="H"/><path d="M30.57 48.62l-6.64 3.85-6.64 3.84V40.93l13.28 7.7z" id="I"/><path d="M30.57 48.62l-6.64 3.85-6.64 3.84V40.93l13.28 7.7z" id="J"/><path d="M30.57 48.62l-6.64 3.85-6.64 3.84V40.93l13.28 7.7z" id="K"/><path d="M30.57 48.62l-6.64 3.85-6.64 3.84V40.93l13.28 7.7z" id="L"/><path d="M10.64 37.1L4 33.24v15.38l6.64-3.84 6.65-3.85-6.65-3.84z" id="M"/><path d="M10.64 37.1L4 33.24v15.38l6.64-3.84 6.65-3.85-6.65-3.84z" id="N"/><path d="M10.64 37.1L4 33.24v15.38l6.64-3.84 6.65-3.85-6.65-3.84z" id="O"/><path d="M10.64 37.1L4 33.24v15.38l6.64-3.84 6.65-3.85-6.65-3.84z" id="P"/><path d="M23.93 60.16L30.57 64V48.62l-6.64 3.85-6.64 3.84 6.64 3.85z" id="Q"/><path d="M23.93 60.16L30.57 64V48.62l-6.64 3.85-6.64 3.84 6.64 3.85z" id="R"/><path d="M23.93 60.16L30.57 64V48.62l-6.64 3.85-6.64 3.84 6.64 3.85z" id="S"/><path d="M23.93 60.16L30.57 64V48.62l-6.64 3.85-6.64 3.84 6.64 3.85z" id="T"/><path d="M4 48.62l6.64-3.84 6.65-3.85V56.3l-6.65-3.84L4 48.62z" id="U"/><path d="M4 48.62l6.64-3.84 6.65-3.85V56.3l-6.65-3.84L4 48.62z" id="V"/><path d="M4 48.62l6.64-3.84 6.65-3.85V56.3l-6.65-3.84L4 48.62z" id="W"/><path d="M4 48.62l6.64-3.84 6.65-3.85V56.3l-6.65-3.84L4 48.62z" id="X"/><path d="M60 33.24l-13.3-7.7v15.38l6.65-3.84L60 33.24z" id="Y"/><path d="M60 33.24l-13.3-7.7v15.38l6.65-3.84L60 33.24z" id="Z"/><path d="M60 33.24l-13.3-7.7v15.38l6.65-3.84L60 33.24z" id="a"/><path d="M60 33.24l-13.3-7.7v15.38l6.65-3.84L60 33.24z" id="b"/><path d="M46.7 25.55l13.3 7.7V17.86l-6.64 3.85-6.65 3.84z" id="c"/><path d="M46.7 25.55l13.3 7.7V17.86l-6.64 3.85-6.65 3.84z" id="d"/><path d="M46.7 25.55l13.3 7.7V17.86l-6.64 3.85-6.65 3.84z" id="e"/><path d="M46.7 25.55l13.3 7.7V17.86l-6.64 3.85-6.65 3.84z" id="f"/><path d="M40.07 44.78l-6.64 3.84 13.28 7.7V40.93l-6.64 3.85z" id="g"/><path d="M40.07 44.78l-6.64 3.84 13.28 7.7V40.93l-6.64 3.85z" id="h"/><path d="M40.07 44.78l-6.64 3.84 13.28 7.7V40.93l-6.64 3.85z" id="i"/><path d="M40.07 44.78l-6.64 3.84 13.28 7.7V40.93l-6.64 3.85z" id="j"/><path d="M53.36 37.1L60 33.24v15.38l-13.3-7.7 6.65-3.84z" id="k"/><path d="M53.36 37.1L60 33.24v15.38l-13.3-7.7 6.65-3.84z" id="l"/><path d="M53.36 37.1L60 33.24v15.38l-13.3-7.7 6.65-3.84z" id="m"/><path d="M53.36 37.1L60 33.24v15.38l-13.3-7.7 6.65-3.84z" id="n"/><path d="M40.07 60.16L33.43 64V48.62l13.28 7.7-6.64 3.85z" id="o"/><path d="M40.07 60.16L33.43 64V48.62l13.28 7.7-6.64 3.85z" id="p"/><path d="M40.07 60.16L33.43 64V48.62l13.28 7.7-6.64 3.85z" id="q"/><path d="M40.07 60.16L33.43 64V48.62l13.28 7.7-6.64 3.85z" id="r"/><path d="M53.36 52.47L60 48.62l-13.3-7.7V56.3l6.65-3.84z" id="s"/><path d="M53.36 52.47L60 48.62l-13.3-7.7V56.3l6.65-3.84z" id="t"/><path d="M53.36 52.47L60 48.62l-13.3-7.7V56.3l6.65-3.84z" id="u"/><path d="M53.36 52.47L60 48.62l-13.3-7.7V56.3l6.65-3.84z" id="v"/><path d="M38.64 11.54L45.3 7.7v15.38l-6.65-3.84L32 15.38l6.64-3.84z" id="w"/><path d="M38.64 11.54L45.3 7.7v15.38l-6.65-3.84L32 15.38l6.64-3.84z" id="x"/><path d="M38.64 11.54L45.3 7.7v15.38l-6.65-3.84L32 15.38l6.64-3.84z" id="y"/><path d="M38.64 11.54L45.3 7.7v15.38l-6.65-3.84L32 15.38l6.64-3.84z" id="z"/><path d="M51.93 19.23l-6.64 3.84V7.7l6.64 3.84 6.64 3.85-6.64 3.85z" id="AA"/><path d="M51.93 19.23l-6.64 3.84V7.7l6.64 3.84 6.64 3.85-6.64 3.85z" id="AB"/><path d="M51.93 19.23l-6.64 3.84V7.7l6.64 3.84 6.64 3.85-6.64 3.85z" id="AC"/><path d="M51.93 19.23l-6.64 3.84V7.7l6.64 3.84 6.64 3.85-6.64 3.85z" id="AD"/><path d="M25.36 19.23l-6.65 3.84V7.7l13.3 7.7-6.64 3.85z" id="AE"/><path d="M25.36 19.23l-6.65 3.84V7.7l13.3 7.7-6.64 3.85z" id="AF"/><path d="M25.36 19.23l-6.65 3.84V7.7l13.3 7.7-6.64 3.85z" id="AG"/><path d="M25.36 19.23l-6.65 3.84V7.7l13.3 7.7-6.64 3.85z" id="AH"/><path d="M45.3 7.7l-6.65-3.84L32 0v15.38l6.64-3.84L45.3 7.7z" id="AI"/><path d="M45.3 7.7l-6.65-3.84L32 0v15.38l6.64-3.84L45.3 7.7z" id="AJ"/><path d="M45.3 7.7l-6.65-3.84L32 0v15.38l6.64-3.84L45.3 7.7z" id="AK"/><path d="M45.3 7.7l-6.65-3.84L32 0v15.38l6.64-3.84L45.3 7.7z" id="AL"/><path d="M5.43 15.38l13.28 7.7V7.7l-6.64 3.85-6.64 3.84z" id="AM"/><path d="M5.43 15.38l13.28 7.7V7.7l-6.64 3.85-6.64 3.84z" id="AN"/><path d="M5.43 15.38l13.28 7.7V7.7l-6.64 3.85-6.64 3.84z" id="AO"/><path d="M5.43 15.38l13.28 7.7V7.7l-6.64 3.85-6.64 3.84z" id="AP"/><path d="M25.36 3.85L32 0v15.38L18.7 7.7l6.65-3.84z" id="AQ"/><path d="M25.36 3.85L32 0v15.38L18.7 7.7l6.65-3.84z" id="AR"/><path d="M25.36 3.85L32 0v15.38L18.7 7.7l6.65-3.84z" id="AS"/><path d="M25.36 3.85L32 0v15.38L18.7 7.7l6.65-3.84z" id="AT"/></defs><use xlink:href="#A" fill="#f6911f"/><use xlink:href="#A" class="B C D"/><use xlink:href="#B" class="B"/><use xlink:href="#B" class="B C D"/><use xlink:href="#C" class="B"/><use xlink:href="#C" class="B C D"/><use xlink:href="#D" class="B"/><use xlink:href="#D" class="B C D"/><use xlink:href="#E" fill="#ffdd29"/><use xlink:href="#E" class="B C D"/><use xlink:href="#F" class="B"/><use xlink:href="#F" class="B C D"/><use xlink:href="#G" class="B"/><use xlink:href="#G" class="B C D"/><use xlink:href="#H" class="B"/><use xlink:href="#H" class="B C D"/><use xlink:href="#I" fill="#a51e24"/><use xlink:href="#I" class="B C D"/><use xlink:href="#J" class="B"/><use xlink:href="#J" class="B C D"/><use xlink:href="#K" class="B"/><use xlink:href="#K" class="B C D"/><use xlink:href="#L" class="B"/><use xlink:href="#L" class="B C D"/><use xlink:href="#M" fill="#f1592a"/><use xlink:href="#M" class="B C D"/><use xlink:href="#N" class="B"/><use xlink:href="#N" class="B C D"/><use xlink:href="#O" class="B"/><use xlink:href="#O" class="B C D"/><use xlink:href="#P" class="B"/><use xlink:href="#P" class="B C D"/><use xlink:href="#Q" fill="#781c20"/><use xlink:href="#Q" class="B C D"/><use xlink:href="#R" class="B"/><use xlink:href="#R" class="B C D"/><use xlink:href="#S" class="B"/><use xlink:href="#S" class="B C D"/><use xlink:href="#T" class="B"/><use xlink:href="#T" class="B C D"/><use xlink:href="#U" fill="#d02128"/><use xlink:href="#U" class="B C D"/><use xlink:href="#V" class="B"/><use xlink:href="#V" class="B C D"/><use xlink:href="#W" class="B"/><use xlink:href="#W" class="B C D"/><use xlink:href="#X" class="B"/><use xlink:href="#X" class="B C D"/><use xlink:href="#Y" fill="#b367b2"/><use xlink:href="#Y" class="B C D"/><use xlink:href="#Z" class="B"/><use xlink:href="#Z" class="B C D"/><use xlink:href="#a" class="B"/><use xlink:href="#a" class="B C D"/><use xlink:href="#b" class="B"/><use xlink:href="#b" class="B C D"/><use xlink:href="#c" fill="#d9b3da"/><use xlink:href="#c" class="B C D"/><use xlink:href="#d" class="B"/><use xlink:href="#d" class="B C D"/><use xlink:href="#e" class="B"/><use xlink:href="#e" class="B C D"/><use xlink:href="#f" class="B"/><use xlink:href="#f" class="B C D"/><use xlink:href="#g" fill="#4d014c"/><use xlink:href="#g" class="B C D"/><use xlink:href="#h" class="B"/><use xlink:href="#h" class="B C D"/><use xlink:href="#i" class="B"/><use xlink:href="#i" class="B C D"/><use xlink:href="#j" class="B"/><use xlink:href="#j" class="B C D"/><use xlink:href="#k" fill="#9a3198"/><use xlink:href="#k" class="B C D"/><use xlink:href="#l" class="B"/><use xlink:href="#l" class="B C D"/><use xlink:href="#m" class="B"/><use xlink:href="#m" class="B C D"/><use xlink:href="#n" class="B"/><use xlink:href="#n" class="B C D"/><use xlink:href="#o" fill="#340033"/><use xlink:href="#o" class="B C D"/><use xlink:href="#p" class="B"/><use xlink:href="#p" class="B C D"/><use xlink:href="#q" class="B"/><use xlink:href="#q" class="B C D"/><use xlink:href="#r" class="B"/><use xlink:href="#r" class="B C D"/><use xlink:href="#s" fill="#690067"/><use xlink:href="#s" class="B C D"/><use xlink:href="#t" class="B"/><use xlink:href="#t" class="B C D"/><use xlink:href="#u" class="B"/><use xlink:href="#u" class="B C D"/><use xlink:href="#v" class="B"/><use xlink:href="#v" class="B C D"/><use xlink:href="#w" fill="#042f85"/><use xlink:href="#w" class="B C D"/><use xlink:href="#x" class="B"/><use xlink:href="#x" class="B C D"/><use xlink:href="#y" class="B"/><use xlink:href="#y" class="B C D"/><use xlink:href="#z" class="B"/><use xlink:href="#z" class="B C D"/><use xlink:href="#AA" fill="#0d2659"/><use xlink:href="#AA" class="B C D"/><use xlink:href="#AB" class="B"/><use xlink:href="#AB" class="B C D"/><use xlink:href="#AC" class="B"/><use xlink:href="#AC" class="B C D"/><use xlink:href="#AD" class="B"/><use xlink:href="#AD" class="B C D"/><use xlink:href="#AE" fill="#027fcc"/><use xlink:href="#AE" class="B C D"/><use xlink:href="#AF" class="B"/><use xlink:href="#AF" class="B C D"/><use xlink:href="#AG" class="B"/><use xlink:href="#AG" class="B C D"/><use xlink:href="#AH" class="B"/><use xlink:href="#AH" class="B C D"/><use xlink:href="#AI" fill="#1845a2"/><use xlink:href="#AI" class="B C D"/><use xlink:href="#AJ" class="B"/><use xlink:href="#AJ" class="B C D"/><use xlink:href="#AK" class="B"/><use xlink:href="#AK" class="B C D"/><use xlink:href="#AL" class="B"/><use xlink:href="#AL" class="B C D"/><use xlink:href="#AM" fill="#0daee2"/><use xlink:href="#AM" class="B C D"/><use xlink:href="#AN" class="B"/><use xlink:href="#AN" class="B C D"/><use xlink:href="#AO" class="B"/><use xlink:href="#AO" class="B C D"/><use xlink:href="#AP" class="B"/><use xlink:href="#AP" class="B C D"/><use xlink:href="#AQ" fill="#0d51d9"/><use xlink:href="#AQ" class="B C D"/><use xlink:href="#AR" class="B"/><use xlink:href="#AR" class="B C D"/><use xlink:href="#AS" class="B"/><use xlink:href="#AS" class="B C D"/><use xlink:href="#AT" class="B"/><use xlink:href="#AT" class="B C D"/></svg>